<svg xmlns="http://www.w3.org/2000/svg" width="1848.8497" height="447.9361" viewBox="0 0 1848.8497 447.9361"><defs><style>.a{fill:#9b081c;}.a,.b,.d{stroke:#000;stroke-miterlimit:10;}.a,.d{stroke-width:12px;}.b{stroke-width:3px;}.c{fill:#e98a15;}.d{fill:#0076ff;}</style></defs><path class="a" d="M1731.2768,271.5525c-4.998-7.038-9.8349-13.6662-14.4808-20.4259-13.7179-19.9591-26.8581-40.2717-36.7065-62.5015-3.6953-8.3411-7.1151-16.8578-7.24-26.1454-.441-32.89,27.3852-59.8531,60.2787-58.5746,31.7943,1.2357,56.9869,26.9336,56.7174,58.0618-.0849,9.8073-3.6988,18.79-7.6682,27.5565-11.065,24.437-25.8186,46.6773-41.1483,68.56C1737.9585,262.4671,1734.7544,266.7574,1731.2768,271.5525Zm-.03-77.3138a29.5663,29.5663,0,0,0,29.4506-29.278c.06-15.9145-13.5107-29.3764-29.48-29.2433-15.9912.1332-29.208,13.2784-29.2481,29.09A29.5539,29.5539,0,0,0,1731.2464,194.2387Z"/><path class="b" d="M1639.88,59.3611l92.1882-34.013,91.4338,36.0089-50.0181,19.9084c-.6656,12.06-1.33,27.9088-1.9959,39.9683a27.5761,27.5761,0,0,1-3.8709,3.9918c-2.5865,2.1705-5.1291,3.3773-10.1,5.9877a52.22,52.22,0,0,1-9.9795,3.9917,55.0509,55.0509,0,0,1-15.9671,1.9959,57.4708,57.4708,0,0,1-15.9671-1.9959,61.2032,61.2032,0,0,1-13.9713-5.9876,82.7065,82.7065,0,0,1-11.9753-7.9836c-.6247-13.3059-1.25-26.6623-1.8751-39.9683Z"/><path class="c" d="M1728.8639,53.9715c2.5735-1.6394,10.7807-1.2674,11.8055,1.0442,1.0279,2.3187-6.1577,2.3127-7.8505,2.8435-2.9785.9339-8.011,4.4736-15.0439,8.79-5.4116,3.3212-9.614,5.7979-19.2455,12.1454a28.6024,28.6024,0,0,0-5.9878,4.8451c-1.6917,1.9262-1.9895,4.053-2.0328,6.5628-.1926,11.1629-.4347,22.325-.6139,33.488l-.0007.0362c-.0359,3.5924-.065,7.3572.71,8.02a5.6214,5.6214,0,0,1,2.0166,4.7381c-.0335,3.4066-1.8456,3.7161-1.8415,5.8846.0021,1.0676.5844,1.7386,2.31,5.7268a31.6366,31.6366,0,0,1,1.8484,5.4115c.5523,2.313,1.2816,4.411,1.7152,6.7438a70.1341,70.1341,0,0,1,1.3551,9.6724c.0429,1.1143-2.3374.0272-2.6216-.2093-.6326-.5266-1.0711-.8915-1.5925-.87-.4493.0188-.505.3057-1.37.8543a2.6368,2.6368,0,0,1-3.716.0846c-.967-.58-.9-.7786-1.2971-.9177-1.3747-.4822-2.38,1.838-4.14,1.6965-1.1214-.09-1.6115-1.15-2.5852-1.4788a2.3127,2.3127,0,0,0-1.9812.5121c-.2587.184-.9053,1.0581-1.1725.9242-.475-.238-.1957-2.4038-.1853-2.76.0558-1.9112.1369-2.6636.1369-2.6637.29-2.6935.5061-4.3737.8675-6.3647a52.3465,52.3465,0,0,1,3.6705-12.0724c.5772-1.2092,1.5931-3.3535,1.571-4.7137-.0244-1.5012-.9124-2.22-1.3457-3.612a6.013,6.013,0,0,1,1.4873-6.3741c1.1447-1.2247.9048-3.9459.9179-6.0572.042-9.9876.172-19.979.2344-29.97.0136-2.19.0271-4.38.0647-6.57.0345-2.0174-.1841-3.8613.5384-5.8082,1.3008-3.5053,4.4923-5.3715,7.3911-7.4392,8.86-6.32,25.059-15.7036,26.8267-16.8335C1721.7259,57.9907,1724.8188,56.5485,1728.8639,53.9715Z"/><path class="d" d="M715.44,322.122c-4.8562-1.318-9.3716.64-11.91,1.9635-13.4889,7.0295-50.2878,65.9745-63.4936,28.3234-3.0279-8.6327-1.3867-18.1194.286-27.1135q7.8557-42.2373,15.8677-84.4451c.7736-4.0554,1.5494-8.21.8942-12.2871-3.2929-20.4863-34.4179-14.4368-43.7306-2.3339-10.68,13.88-13.76,35.2757-16.5746,52.1812-3.2978,19.8115-4.9853,39.86-8.5961,59.6234-1.2635,6.9152-2.8836,14.0494-7.2066,19.5926-4.7436,6.0826-15.9582,10.6259-22.4593,4.4714-4.7969-4.5411-4.2957-12.191-3.3419-18.7271,2.5024-17.1486,5.6436-34.1968,9.053-51.1862,3.1566-15.73,8.19-31.5917,7.72-47.6729-.9434-32.2537-34.3535-31.6121-56.5344-17.2694-15.0756,9.7483-27.3785,22.7815-37.4318,37.5916a213.5225,213.5225,0,0,0-14.2955,24.6636c-4.36,8.7418-7.4833,18.1189-11.93,26.7782q2.6892-23.3977,7.693-46.4516,2.4608-11.3361,5.4735-22.5429c1.75-6.51,5.0475-13.8785,3.8881-20.7508-2.3776-14.1392-25.4457-9.0773-33.1362-3.1162-5.6,4.34-9.6452,10.3629-13.1259,16.5336-19.8015,35.1046-24.1434,77.549-45.5337,111.7087-3.9823,6.36-9.9367,13.0475-17.4055,12.3248-6.5866-.6374-12.0151-6.5917-14.8382-12.161-7.7227-15.2357-5.8-34.5586-4.6257-51.0449,1.3627-19.1241,4.5-38.0675,7.9066-56.9175,6.6134-36.5967,15.1273-72.9182,18.9428-109.9662.7624-7.4023,1.3379-14.8245,1.6716-22.2588q.1739-3.8741.2589-7.7514c.32-14.8438-1.2768-34.2274-16.4481-41.6162-13.4444-6.5478-29.9255-.0533-36.5676,12.9989-4.6346,9.1073-5.6438,19.5581-6.8088,29.71a668.6336,668.6336,0,0,1-21.8391,109.05c-9.5771,33.1953-21.3629,66.4034-39.9233,95.763a144.683,144.683,0,0,1-17.7236,23.12c-24.0822,28.7687-75.5788,42.01-78.3163-2.4668-3.716-68.5518,96.9937-262.3569-16.4481-269.7084C82.7234,56.61,44.5632,108.2985,28.339,137.7753,15.38,161.32,34.2271,180.042,52.2029,157.35,97.38,100.32,138.38,98.32,126.82,161.4574,115.1784,225.0429,58.9738,341.91,109.7665,392.321c67.3275,66.8219,155.0441-23.0348,176.7943-104.6381,0,0,.1533-1.74.6117-1.775.9237-.07,1.3732,21.8418,1.4568,23.2537.9878,16.6672,3.2887,33.4337,8.5774,49.3233,7.1421,21.4584,20.107,42.5957,43.6678,47.926a51.3784,51.3784,0,0,0,44.04-10.9169c6.9973-5.9958,12.16-13.7633,16.2851-21.9338,1.0424-2.0648,9.5764-23.4127,10.18-23.2407.17.0485-3.2886,21.58-3.3123,23.2485-.1926,13.5436,4.8417,27.4721,17.4188,34.1415,5.3992,2.8631,12.07,3.6939,17.68,1.2705,7.0053-3.0259,11.1453-10.3822,13.3714-17.6812,11.3142-37.0971,19.2-75.8093,46.6606-105.1529,3.3464-3.5759,10.3113-9.1719,12.7046-1.3679.7255,2.3654.308,4.9113-.115,7.349-4.6158,26.5992-12.7488,54.73-10.2634,81.8653.9272,10.0722,3.8558,18.9012,10.0957,25.3152,20.79,23,58.0826,12.2,86.4909-8.4549,4.9614,5.5963,14.2424,14.3032,28.09,18.1292,39.3088,10.86,86.81-28.232,94.9921-65.8264a24.9381,24.9381,0,0,0-.176-12.2895C724.8578,330.4868,721.9786,323.8968,715.44,322.122Z"/><path class="d" d="M605.1507,197.3275c-20.53-22.9632,15.75-48.6,36.6779-32.1934C664.0243,188.579,625.9855,214.8258,605.1507,197.3275Z"/><path class="d" d="M1292.3006,197.3275c-20.53-22.9632,15.75-48.6,36.6779-32.1934C1351.1742,188.579,1313.1354,214.8258,1292.3006,197.3275Z"/><path class="d" d="M1728.9135,292.3029a2.3089,2.3089,0,0,0-.3393-.1c-3.6237-.78-17.6427,12.453-20.855,14.817-23.71,17.4489-47.1194,51.1132-80.5229,34.73-24.293-11.9147-42.26-36.7-71.4178-30.749-17.395,3.55-30.3126,17.6661-42.599,30.4814-13.4995,14.0806-30.66,28.2309-51.4214,27.01-18.3935-1.0817-31.7477-16.6094-35.0259-33.9392,51.3-69.9071,99.2653-161.4058,100.3219-240.9357C1531.27,13.5169,1462.7215-3.58,1424.4679,68.95c-33.9439,67.428-61.2733,176.2515-48.0361,259.4058-11.1882,11.763-20.7277,29.0731-36.1584,35.9743-4.3407,1.9413-9.6363,2.3571-13.7229-.0741-5.4885-3.265-7.1709-10.376-7.6207-16.7465-1.0713-15.1755,1.9106-30.3122,4.8777-45.2334q5.6625-28.4772,11.3251-56.9544c1.0887-5.4755,2.1712-11.192.6838-16.5728-2.59-9.3692-12.0967-10.8551-20.5032-10.9634-6.638-.0855-14.5206,1.18-19.4735,5.8783-5.78,5.4826-9.5124,13.7783-12.0349,21.1864-2.9857,8.7688-4.5042,17.9576-6.01,27.0974q-3.83,23.2364-7.6595,46.4726c-1.3421,8.1425-2.7508,16.4786-6.8229,23.6562-4.8286,8.5108-12.9734,14.6158-21.3775,19.6277-2.953,1.7613-6.0489,3.4488-9.4467,3.9749s-7.1928-.3114-9.436-2.9173c-1.6562-1.9238-2.2679-4.5241-2.6055-7.04-1.5249-11.3644.961-23.3109,2.717-34.5487,1.7946-11.4848,3.9434-22.914,6.2231-34.3113,2.6842-13.4193,8.3669-30.0751,5.2417-43.8646-2.7747-12.2442-15.9729-12.4783-26.2928-11.5316-2.1932.2012-4.3789.4845-6.56.8074-6.3766.9446-6.4171-6.6029-10.0478-10.723-4.413-5.0078-12.0213-5.4089-18.6607-4.7233a93.8569,93.8569,0,0,0-60.4841,31.2712c-13.4026,15.3782-21.3784,34.8272-34.4176,50.5147-5.4468,6.5531-14.8724,12.7558-22.0725,4.4219a17.689,17.689,0,0,1-3.7791-9.7059c-.8486-7.68,1.3678-15.2111,3.009-22.6313a148.5758,148.5758,0,0,0,2.8355-17.8536c.8964-9.383.9523-20.878-5.7806-28.331a20.01,20.01,0,0,0-10.0227-5.8142,36.2432,36.2432,0,0,0-10.3147-.915c-47.8483,4.6144-74.9365,52.9829-93.33,98.68,2.2015-24.3915,4.99-35.895,10.69-59.2071,4.5624-23.225,15.4969-39.2694-8.6361-39.4708-18.7874.1456-30.1395,5.5644-35.77,23.0251-13.92,42.9641-21.8471,112.8943-8.8388,154.1825,3.7044,11.7577,14.9515,17.6012,26.9656,16.3307a20.771,20.771,0,0,0,13.4307-6.5154,30.3965,30.3965,0,0,0,4.8979-8.679c6.3247-15.3227,9.786-31.6566,15.06-47.3717a215.4137,215.4137,0,0,1,28.4919-56.023c2.6516-3.7366,10.0892-14.6606,15.8576-11.3462,6.8406,3.93,2.9518,17.0479,2.1089,22.99-1.4635,10.3159-.5228,21.4016,5.1179,30.1618,5.8634,9.1058,16.2624,14.662,26.9556,16.3787s21.6818-.0558,32.0615-3.15c5.0956-1.5179,4.4125,5.7077,4.8979,9.1505.6633,4.7062,1.1616,9.4526,2.632,13.9961,2.4292,7.5055,5.98,16.0323,11.2643,22.0216,26.4928,31.07,73.6083,21.7564,94.5651-16.0352,11.5227,35.9,49.5737,45.0261,78.5307,20.148,5.0176-4.27,10.9921-9.1119,16.89-14.4735a73.6623,73.6623,0,0,0,5.1008,9.95c31.2472,36.53,71.8287,17.5277,106.9562-21.5474q1.6188,3.9642,3.426,7.7748c7.1808,15.0933,19.854,24.3305,34.0738,28.9007,35.0359,11.26,82.4971-9.7951,105.96-36.1372,6.2635-7.032,11.4978-15.1458,19.0625-20.7542,12.7207-9.4309,29.3932-6.8137,41.1317,1.8232,9.623,7.08,15.8759,12.7081,26.6534,17.8643,37.0318,17.7168,73.419-13.9834,95.6995-40.4407,4.8715-5.7847,9.8646-12.1594,13.1094-19.0208C1728.4268,308.09,1733.2672,293.9688,1728.9135,292.3029Zm-570.43,66.7658c-9.731,11.71-29.5054,16.6364-34.6141-1.3393-3.4251-12.0516-1.4879-26.2426,1.302-38.2592,5.8176-25.058,20.71-54.0859,47.0573-62.2321a45.8221,45.8221,0,0,1,12.9853-1.9536c-4.4315,26.445-8.8735,52.9385-15.8238,78.8359-2.2159,8.2567-4.772,16.6253-9.8059,23.535Q1159.0592,358.3769,1158.4838,359.0687Zm274.8267-176.6418c46.7913-245.0685,95.9056-62.2441-9.8684,97.0327A612.6129,612.6129,0,0,1,1433.3105,182.4269Z"/><path class="d" d="M1027.2479,76.7606c19.0022,16.3884.23,44.1187-25.2851,39.0567-50.2552-3.7965-63.2743-4.6731-112.2462-5.3429-5.6527,30.5483-10.5013,57.08-14.6533,80.1119-14.9175,82.7528-20.8425,120.3365-22.7621,136.7727-1.4475,12.3932-4.03,24.6275-5.9211,36.9608-4.7366,30.8944-5.1281,36.9294-10.5226,40.747-11.8523,8.3879-50.6517,3.084-50.1626-17.4749.4931-20.7239,6.4132-55.921,10.279-80.5857,5.8011-37.0456,11.469-72.3283,17.7671-107.4266,5.2729-29.3851,10.9876-58.6409,17.5919-88.6939-24.4784.3484-55.1549,2.3691-77.2063,11.0334-24.9572,9.806-38.8663,28.1217-20.2376,62.1539,7.8889,14.1238-14.0843,28.1144-26.7243,27.5456-23.54-1.06-28.9589-30.8259-30.7954-48.9459-2.5092-24.7578,10.9533-49.4679,29.761-64.82,22.26-18.17,51.2-25.8793,79.5791-30.3818,43.8327-6.9542,88.3678-7.3776,132.6352-6.221,19.866.5191,39.8448.6111,59.65,1.9224C994.424,64.26,1014.1549,65.4686,1027.2479,76.7606Z"/></svg>